<?xml version="1.0" encoding="utf-8"?>
<!-- Generator: Adobe Illustrator 27.0.0, SVG Export Plug-In . SVG Version: 6.00 Build 0)  -->
<svg version="1.1" id="图层_1" xmlns="http://www.w3.org/2000/svg" xmlns:xlink="http://www.w3.org/1999/xlink" x="0px" y="0px"
	 viewBox="0 0 500 500" style="enable-background:new 0 0 500 500;" xml:space="preserve">
<style type="text/css">
	.st0{fill:url(#SVGID_1_);}
	.st1{fill:#FFFFFF;}
	.st2{font-family:'MicrosoftYaHeiUI';}
	.st3{font-size:70.2823px;}
</style>
<g>
	
		<linearGradient id="SVGID_1_" gradientUnits="userSpaceOnUse" x1="76.1672" y1="409.1069" x2="343.8647" y2="163.9394" gradientTransform="matrix(1 0 0 -1 0 500)">
		<stop  offset="0" style="stop-color:#C9C9C9"/>
		<stop  offset="0.5963" style="stop-color:#545454"/>
		<stop  offset="1" style="stop-color:#030303"/>
	</linearGradient>
	<path class="st0" d="M398.6,35.5c4.3,0,8.5,0.9,12.4,2.6c6.3,2.5,11.2,6.3,14.9,11.6c3.7,5.3,5.5,11.2,5.5,17.6v365.6
		c0,6.4-1.8,12.3-5.5,17.6c-3.7,5.3-8.6,9.2-14.9,11.6c-3.6,1.5-7.8,2.3-12.4,2.3c-9.1,0-17-3.1-23.6-9.1L250.1,335L124.9,455.2
		c-6.8,6.3-14.7,9.4-23.6,9.4c-4.3,0-8.5-0.9-12.4-2.6c-6.3-2.5-11.2-6.3-14.9-11.6c-3.7-5.3-5.5-11.2-5.5-17.6V67.2
		c0-6.4,1.8-12.3,5.5-17.6s8.6-9.2,14.9-11.6c4-1.7,8.1-2.6,12.4-2.6L398.6,35.5L398.6,35.5z"/>
</g>
<path class="st1" d="M380.7,125.6H120c-9.8,0-17.9-8-17.9-17.9l0,0c0-9.8,8-17.9,17.9-17.9h260.8c9.8,0,17.9,8,17.9,17.9l0,0
	C398.6,117.5,390.6,125.6,380.7,125.6z"/>
<path class="st1" d="M380.7,183.8H120c-9.8,0-17.9-8-17.9-17.9l0,0c0-9.8,8-17.9,17.9-17.9h260.8c9.8,0,17.9,8,17.9,17.9l0,0
	C398.6,175.7,390.6,183.8,380.7,183.8z"/>
<text transform="matrix(1 0 0 1 92.896 274.3873)" class="st1 st2 st3">ChapWeb</text>
</svg>
