<?xml version="1.0" standalone="no"?><!DOCTYPE svg PUBLIC "-//W3C//DTD SVG 1.1//EN" "http://www.w3.org/Graphics/SVG/1.1/DTD/svg11.dtd"><svg t="1741493077260" class="icon" viewBox="0 0 1024 1024" version="1.1" xmlns="http://www.w3.org/2000/svg" p-id="9986" xmlns:xlink="http://www.w3.org/1999/xlink" width="128" height="128"><path d="M85.333333 512C85.333333 276.352 276.352 85.333333 512 85.333333s426.666667 191.018667 426.666667 426.666667-191.018667 426.666667-426.666667 426.666667S85.333333 747.648 85.333333 512z m426.666667-384.426667a384.426667 384.426667 0 1 0 0 768.853334 384.426667 384.426667 0 0 0 0-768.853334z m-21.12 152.064a42.24 42.24 0 0 1 42.24-42.24 253.44 253.44 0 0 1 253.44 253.482667v42.24a253.44 253.44 0 0 1-253.44 253.44 42.24 42.24 0 0 1-42.24-42.24V279.68z" p-id="9987"></path></svg>