<?xml version="1.0" standalone="no"?><!DOCTYPE svg PUBLIC "-//W3C//DTD SVG 1.1//EN" "http://www.w3.org/Graphics/SVG/1.1/DTD/svg11.dtd"><svg t="1741427180283" class="icon" viewBox="0 0 1025 1024" version="1.1" xmlns="http://www.w3.org/2000/svg" p-id="8527" xmlns:xlink="http://www.w3.org/1999/xlink" width="128.125" height="128"><path d="M3.840356 540.921196l198.702842 223.309566a9.482359 9.482359 0 0 0 12.137421 2.275766 15.408834 15.408834 0 0 0 6.685063-13.227891V306.612094a15.361422 15.361422 0 0 0-6.685063-13.227892 9.482359 9.482359 0 0 0-12.137421 2.275767L3.840356 518.874711a17.542365 17.542365 0 0 0 0 21.90425zM56.894157 0h909.026391q56.894157 0 56.894157 73.014168t-56.894157 72.966756H56.894157q-56.894157 0-56.894157-72.966756T56.894157 0zM56.894157 875.980369h909.026391q56.894157 0 56.894157 73.014168t-56.894157 72.966756H56.894157q-56.894157 0-56.894157-72.966756t56.894157-73.014168z" fill="#1296db" p-id="8528" data-spm-anchor-id="a313x.search_index.0.i0.76a23a813rXGoE" class="selected"></path><path d="M397.737568 437.990184h568.18298q56.894157 0 56.894157 73.014168t-56.894157 72.966756H397.737568q-56.894157 0-56.894157-72.966756t56.894157-73.014168z" fill="#1296db" p-id="8529" data-spm-anchor-id="a313x.search_index.0.i1.76a23a813rXGoE" class="selected"></path></svg>